<?xml version="1.0" standalone="no"?>
<!DOCTYPE svg PUBLIC "-//W3C//DTD SVG 20010904//EN"
 "http://www.w3.org/TR/2001/REC-SVG-20010904/DTD/svg10.dtd">
<svg version="1.0" xmlns="http://www.w3.org/2000/svg"
 width="736.000000pt" height="736.000000pt" viewBox="0 0 736.000000 736.000000"
 preserveAspectRatio="xMidYMid meet">
<metadata>
Created by potrace 1.14, written by Peter Selinger 2001-2017
</metadata>
<g transform="translate(0.000000,736.000000) scale(0.100000,-0.100000)"
fill="#000000" stroke="none">
<path d="M3370 7240 c0 -6 45 -10 112 -10 61 0 109 2 107 4 -11 9 -219 15
-219 6z"/>
<path d="M3623 7223 c9 -2 25 -2 35 0 9 3 1 5 -18 5 -19 0 -27 -2 -17 -5z"/>
<path d="M3693 7213 c9 -2 23 -2 30 0 6 3 -1 5 -18 5 -16 0 -22 -2 -12 -5z"/>
<path d="M3855 7174 c147 -42 364 -148 490 -238 101 -73 328 -293 318 -309 -3
-5 -1 -7 5 -3 6 3 31 -22 58 -59 26 -36 51 -65 55 -65 4 0 6 11 5 24 0 13 -4
24 -8 23 -4 -1 -26 21 -48 48 -180 219 -407 400 -635 506 -83 39 -308 110
-344 109 -9 -1 38 -17 104 -36z"/>
<path d="M3070 7012 c0 -5 19 -14 43 -21 79 -24 222 -98 302 -158 93 -69 186
-158 182 -175 -1 -7 3 -12 8 -13 20 0 57 -43 50 -56 -5 -7 -4 -10 2 -6 13 8
76 -70 68 -83 -4 -6 -1 -9 7 -8 8 2 13 -6 13 -19 0 -11 4 -25 8 -29 4 -5 5 0
1 11 -6 18 -5 18 9 5 9 -8 17 -21 19 -29 2 -8 11 -23 21 -33 10 -11 16 -26 13
-34 -3 -8 -2 -13 3 -10 5 4 21 -14 35 -38 29 -49 32 -61 14 -50 -7 4 -8 3 -4
-5 4 -6 11 -9 16 -6 8 5 34 -48 30 -61 -1 -4 3 -10 8 -13 15 -9 63 -122 56
-132 -3 -5 -1 -9 3 -9 8 0 20 -25 42 -85 2 -5 -15 20 -38 57 -23 37 -41 69
-41 73 0 3 -16 28 -35 55 -40 57 -42 61 -17 54 14 -5 14 -4 2 4 -8 6 -17 9
-22 6 -4 -2 -12 4 -18 15 -5 11 -33 50 -61 86 -27 36 -47 70 -44 75 4 6 1 9
-7 8 -7 -2 -12 5 -12 14 1 10 -1 16 -5 16 -3 -1 -60 52 -126 118 -127 127
-206 182 -337 236 -85 34 -237 60 -308 51 -80 -9 -58 -21 43 -21 114 -1 209
-22 302 -67 96 -46 167 -93 160 -105 -3 -5 0 -8 7 -5 17 7 161 -132 152 -147
-4 -6 -3 -8 4 -5 13 9 64 -51 56 -65 -4 -6 -2 -8 4 -4 14 8 55 -50 46 -65 -4
-7 -3 -9 3 -6 13 8 66 -59 58 -73 -4 -6 -2 -9 3 -8 13 4 74 -80 67 -92 -3 -5
4 -14 15 -20 12 -7 19 -18 16 -26 -3 -8 0 -13 7 -11 7 1 11 -4 10 -10 -2 -7 0
-13 5 -13 4 0 16 -17 26 -37 10 -21 22 -45 27 -53 35 -59 55 -107 51 -119 -2
-8 0 -11 5 -8 8 5 39 -51 63 -116 5 -16 16 -27 22 -25 16 6 11 87 -5 107 -7 8
-11 15 -9 15 3 1 -17 54 -47 121 -10 22 -33 78 -52 125 -19 47 -55 125 -82
173 -26 49 -45 93 -41 98 3 5 1 8 -5 7 -14 -4 -122 162 -114 175 3 5 2 7 -4 4
-6 -4 -25 13 -44 36 -153 191 -330 326 -531 406 -80 32 -98 37 -98 23z"/>
<path d="M2270 6792 c-297 -135 -508 -313 -672 -568 -34 -52 -139 -297 -168
-389 -34 -110 -69 -299 -81 -430 -21 -229 10 -461 92 -710 32 -96 41 -115 51
-115 12 0 12 0 -35 135 -121 348 -125 712 -10 1110 82 286 311 547 669 761 11
6 14 13 7 17 -17 11 -218 -130 -329 -230 -57 -51 -129 -125 -160 -163 -52 -65
-76 -88 -58 -57 93 159 266 357 392 447 99 71 233 144 341 186 95 37 123 54
84 54 -10 -1 -65 -22 -123 -48z"/>
<path d="M2462 6453 c-1 -25 -11 -48 -31 -72 -99 -118 -362 -497 -470 -676
-23 -38 -46 -77 -51 -85 -37 -59 -120 -206 -120 -211 0 -4 -25 -25 -55 -48
-30 -23 -55 -39 -55 -36 0 37 203 439 252 500 17 21 98 144 98 150 0 27 -67
-62 -174 -234 -78 -123 -239 -482 -267 -594 -55 -222 -71 -420 -45 -567 9 -47
16 -88 16 -92 0 -11 -38 -10 -60 2 -12 7 -21 7 -25 0 -3 -5 16 -20 42 -32 26
-13 50 -23 51 -25 12 -6 45 -197 62 -363 37 -348 68 -535 111 -670 23 -68 121
-274 145 -301 8 -8 14 -20 14 -26 0 -23 -38 2 -135 86 -101 88 -158 156 -150
178 2 7 -1 12 -8 10 -19 -3 -135 238 -158 328 -11 44 -25 126 -31 183 -7 56
-16 102 -20 102 -11 0 -10 -39 2 -137 16 -128 45 -223 103 -345 79 -167 160
-274 251 -333 14 -10 26 -21 26 -24 0 -11 -129 7 -180 26 -72 25 -203 118
-267 187 -93 102 -181 296 -212 470 -12 67 -13 274 -2 354 4 29 4 49 0 45 -9
-10 -26 -187 -34 -348 -9 -194 24 -462 72 -575 29 -68 65 -135 86 -157 11 -13
17 -26 13 -30 -4 -4 -35 22 -69 59 -95 100 -162 251 -203 451 -21 104 -29 380
-15 519 14 140 61 380 91 463 42 118 71 208 66 212 -2 2 -12 -20 -21 -49 -25
-81 -37 -108 -45 -108 -4 0 -15 33 -24 73 -12 54 -14 60 -11 25 2 -26 0 -50
-5 -53 -6 -3 -10 -1 -10 4 0 6 -15 11 -34 11 -44 0 -47 10 -57 170 l-7 125 4
-145 c4 -174 29 -331 58 -369 8 -11 8 -13 -2 -7 -22 13 -53 86 -76 178 -21 80
-36 104 -36 57 0 -21 -5 -21 -140 5 -131 25 -319 44 -495 51 -88 3 -175 8
-193 11 l-32 5 0 -2391 0 -2390 928 0 927 0 34 133 c34 136 139 460 171 532
10 22 30 69 45 105 110 261 267 503 435 669 205 203 361 321 554 420 172 88
265 115 441 126 55 3 138 13 185 22 68 13 125 15 285 10 110 -4 235 -12 278
-18 68 -10 77 -14 78 -33 1 -17 2 -17 6 -4 3 12 14 18 32 18 27 0 28 -2 35
-64 3 -35 13 -85 20 -110 10 -32 11 -44 3 -39 -7 3 -2 -5 11 -19 29 -31 28
-42 -2 -34 -14 3 -27 2 -31 -4 -7 -11 39 -25 54 -15 12 7 34 -42 27 -59 -2 -6
-5 -3 -5 7 -1 11 -6 15 -12 11 -8 -4 -9 1 -5 17 5 16 4 19 -2 9 -13 -22 -9
-73 6 -76 7 -1 8 0 2 3 -16 8 -12 26 5 20 8 -4 17 -1 21 5 8 13 43 -30 44 -53
0 -18 24 -42 32 -33 3 2 8 -2 11 -9 4 -11 0 -13 -15 -9 -12 3 -27 21 -36 43
-8 21 -19 36 -25 32 -6 -4 -7 -1 -2 7 5 9 4 11 -3 6 -31 -19 1 -76 49 -91 11
-4 19 -15 19 -25 0 -9 8 -20 18 -22 24 -7 37 -4 34 5 -5 16 17 -4 47 -42 30
-37 30 -39 7 -28 -13 7 -22 15 -20 19 2 3 0 9 -6 13 -5 3 -10 1 -10 -5 0 -29
-77 25 -78 54 0 12 -24 26 -44 26 -16 0 -18 -10 -18 -80 0 -64 3 -80 15 -80 8
0 15 -7 15 -15 0 -8 -4 -15 -9 -15 -5 0 -23 -12 -40 -26 -25 -21 -31 -33 -31
-65 0 -21 5 -39 10 -39 6 0 10 -18 10 -40 0 -22 -4 -40 -10 -40 -5 0 -10 9
-10 20 0 32 -39 6 -47 -31 -3 -16 -12 -29 -19 -29 -8 0 -22 -9 -31 -20 -10
-11 -28 -20 -40 -20 -19 0 -23 -5 -23 -30 0 -28 -3 -30 -36 -30 -37 0 -53 -10
-73 -48 -10 -19 -20 -22 -71 -22 -38 0 -60 4 -63 13 -3 8 -12 6 -33 -9 -25
-18 -28 -26 -25 -65 1 -24 7 -45 12 -47 5 -2 14 -22 21 -45 l11 -42 8 30 c5
22 7 25 8 8 0 -12 -2 -29 -5 -37 -9 -22 -34 -1 -34 28 -1 29 -26 60 -41 50 -7
-4 -10 -3 -6 3 10 15 -23 25 -39 12 -7 -6 -12 -27 -11 -49 2 -21 -1 -36 -6
-33 -5 3 -11 -4 -14 -16 -3 -11 -13 -23 -23 -26 -9 -3 -25 -14 -35 -25 -10
-11 -29 -20 -42 -20 -22 0 -23 -3 -23 -80 0 -73 -2 -80 -20 -80 -15 0 -20 -7
-20 -25 0 -22 -4 -25 -39 -25 -31 0 -41 4 -46 20 -8 24 -35 27 -35 3 0 -9 -7
-25 -17 -35 -15 -17 -15 -18 5 -18 19 0 22 -6 22 -39 0 -40 -23 -74 -34 -49
-3 7 -3 -5 -1 -27 5 -38 4 -38 -15 15 -23 66 -23 63 -8 54 8 -5 9 -2 5 10 -4
10 -7 21 -7 24 0 4 -5 0 -10 -8 -8 -13 -10 -13 -10 2 0 9 -3 23 -6 32 -3 9 -1
16 5 16 6 0 11 -8 11 -17 0 -15 2 -15 9 -4 6 9 4 19 -5 28 -12 12 -16 12 -27
1 -15 -15 -31 -82 -18 -73 5 3 7 -4 4 -15 -3 -11 -9 -22 -13 -25 -5 -3 -6 4
-3 15 4 14 0 20 -11 20 -9 0 -16 -8 -16 -20 0 -16 -7 -20 -30 -20 l-30 0 0
-80 c0 -47 4 -80 10 -80 6 0 10 -18 10 -40 0 -36 -2 -40 -25 -40 -22 0 -25 -4
-25 -40 l0 -40 109 0 c91 0 113 3 127 18 17 16 18 16 11 0 -6 -17 24 -18 537
-18 426 0 545 3 549 13 4 9 6 9 6 0 1 -10 269 -13 1306 -13 l1305 0 0 819 c0
885 3 831 -56 906 -51 65 -241 351 -281 423 -20 37 -39 69 -42 72 -7 6 -52 92
-137 262 -65 130 -167 362 -200 455 -10 28 -21 50 -24 48 -3 -2 -6 7 -6 18 -1
12 -22 76 -47 142 -25 66 -62 174 -83 240 -20 66 -38 121 -39 123 -2 2 -12 4
-23 5 -12 1 -18 6 -15 15 5 11 7 11 14 1 17 -29 16 0 -4 78 -11 45 -24 80 -27
78 -4 -3 -5 8 -3 23 4 22 2 24 -7 12 -9 -12 -10 -9 -5 13 3 17 2 26 -4 23 -5
-3 -7 2 -5 11 2 10 -3 41 -11 68 -11 37 -14 41 -10 15 4 -28 3 -32 -6 -17 -6
11 -8 34 -4 54 3 19 3 33 -2 30 -4 -3 -9 13 -10 36 -2 22 -8 44 -14 48 -6 4
-9 12 -5 18 4 5 -1 39 -10 73 -9 35 -20 86 -24 113 -5 28 -11 57 -15 66 -4 10
21 48 71 110 41 52 79 93 82 92 4 -1 8 -13 10 -25 7 -44 73 -324 91 -383 10
-33 33 -109 51 -170 116 -395 347 -905 571 -1260 49 -78 178 -266 209 -305 20
-25 20 -23 20 1663 0 928 -3 1687 -7 1687 -48 -1 -246 -22 -273 -29 -19 -5
-64 -17 -100 -26 -36 -9 -87 -27 -115 -40 -27 -12 -90 -37 -140 -55 -49 -17
-117 -44 -150 -59 -83 -38 -276 -91 -332 -91 -24 0 -27 6 -99 228 -25 79 -48
142 -50 140 -2 -3 7 -38 21 -79 71 -207 154 -545 138 -559 -10 -9 -98 -31
-138 -35 -16 -2 -59 -12 -95 -24 -72 -22 -250 -70 -381 -102 -77 -19 -90 -19
-114 -7 l-27 15 31 0 c20 0 27 -3 19 -9 -10 -6 -9 -8 3 -8 8 0 19 4 25 8 11
10 82 31 104 31 24 0 113 20 119 27 6 6 -47 -1 -96 -13 -14 -3 -23 -1 -23 6 0
6 17 12 38 12 20 1 51 5 67 9 l30 8 -31 1 c-17 0 -47 3 -65 6 -28 4 -29 3 -9
-4 22 -7 19 -9 -25 -15 -27 -4 -94 -10 -147 -12 -87 -5 -98 -7 -98 -24 0 -24
-30 -33 -63 -21 -31 12 -44 31 -27 41 7 4 9 13 6 19 -4 6 -11 9 -15 6 -5 -2
-11 14 -15 38 -4 23 -10 63 -15 89 -5 33 -4 45 3 41 6 -4 6 -1 -1 8 -7 8 -25
69 -41 134 -17 66 -44 168 -61 228 -35 122 -35 121 -19 111 7 -4 8 -3 4 5 -4
6 -12 8 -18 5 -6 -4 -8 1 -3 16 4 14 3 20 -2 17 -13 -8 -35 66 -27 89 4 14 3
15 -4 6 -7 -11 -11 -7 -16 15 -4 15 -21 56 -37 91 -16 35 -29 66 -29 69 0 3
-16 39 -35 81 -25 52 -39 72 -46 65 -7 -7 -1 -29 20 -72 17 -33 28 -61 25 -61
-4 0 -2 -6 4 -12 16 -20 61 -136 54 -142 -3 -3 0 -6 8 -6 9 0 11 -9 6 -32 -4
-22 -3 -28 3 -19 8 12 11 8 16 -15 4 -16 11 -38 16 -49 12 -26 21 -64 23 -97
0 -14 5 -30 9 -34 4 -5 5 0 2 11 -6 19 -6 19 5 2 7 -10 9 -30 6 -45 -4 -17 -3
-22 2 -14 11 17 97 -321 88 -345 -4 -9 -1 -20 5 -24 7 -4 12 -29 13 -57 1 -27
4 -48 9 -45 12 7 8 -22 -5 -36 -7 -8 -8 -11 -2 -8 16 9 35 -112 39 -243 2 -60
7 -115 11 -121 3 -6 0 -15 -7 -20 -10 -6 -11 -9 -1 -9 9 0 12 -22 10 -82 l-1
-83 -8 75 c-15 138 -18 155 -28 158 -5 2 -7 10 -4 19 4 9 2 14 -3 11 -5 -3
-10 8 -10 25 -1 27 0 29 11 13 10 -12 15 -14 20 -5 5 7 1 16 -9 21 -9 5 -16
17 -16 26 1 15 3 14 16 -3 16 -20 16 -19 9 4 -4 13 -7 45 -7 71 0 54 -12 84
-21 51 -3 -12 -1 -19 4 -15 10 6 12 -7 3 -30 -3 -9 -17 -16 -30 -16 -21 0 -24
-4 -24 -40 0 -39 -1 -40 -36 -40 -25 0 -42 -7 -55 -22 -15 -18 -20 -20 -27
-10 -8 11 -16 9 -46 -10 -40 -26 -45 -38 -16 -38 17 0 20 -7 20 -40 l0 -40
-40 0 -40 0 0 -40 0 -40 -80 0 -80 0 0 -39 c0 -33 4 -40 23 -45 12 -2 -15 -2
-60 1 l-83 5 0 -31 c0 -36 -6 -38 -40 -11 -14 11 -32 20 -40 20 -8 0 -26 -9
-40 -20 -14 -11 -29 -20 -34 -20 -5 0 -15 -8 -22 -17 -12 -17 -13 -17 -14 -1
0 9 7 21 15 26 12 6 14 14 6 33 -9 23 -10 23 -10 2 -1 -12 -6 -23 -12 -25 -5
-2 -11 -11 -13 -20 -4 -32 -16 -32 -16 0 0 18 5 32 10 32 6 0 10 8 10 18 0 13
-2 14 -9 3 -7 -11 -9 -11 -14 0 -7 20 -28 -38 -32 -91 -3 -25 -11 -74 -19
-110 l-16 -65 4 78 c2 50 8 82 15 87 9 5 10 10 3 14 -6 4 -15 -2 -21 -11 -9
-16 -10 -16 -11 4 0 12 6 24 13 26 9 4 9 6 0 6 -15 1 -18 57 -4 66 5 3 11 -9
13 -27 l4 -33 8 30 c5 17 14 33 20 38 6 4 -27 6 -74 5 l-85 -3 1 -120 c1 -79
-1 -110 -7 -90 -7 26 -7 24 -3 -10 10 -83 12 -150 4 -125 l-8 25 -1 -28 c-1
-16 -6 -26 -13 -25 -7 2 -13 -4 -13 -12 0 -9 9 -15 22 -15 12 0 25 -4 30 -9 5
-5 3 -6 -4 -2 -9 5 -13 -1 -13 -19 0 -33 -23 -29 -30 6 -3 18 -6 12 -10 -20
-3 -25 -11 -46 -19 -49 -11 -4 -12 2 -7 24 39 151 73 504 62 637 -5 62 -4 77
6 71 10 -6 10 -5 1 7 -6 8 -14 49 -17 91 -6 80 -33 303 -42 352 -5 21 -3 26 6
21 7 -5 6 2 -3 16 -8 13 -22 65 -31 114 -36 189 -79 355 -94 355 -8 0 -11 -7
-8 -17 61 -207 168 -853 141 -853 -17 0 -80 33 -92 48 -8 9 -12 11 -8 5 9 -19
-3 -16 -44 9 -20 13 -38 23 -41 23 -3 0 -20 7 -39 14 l-33 14 26 14 c15 8 31
11 36 8 6 -4 13 1 16 10 5 11 17 15 44 13 45 -2 76 18 60 37 -8 10 -6 15 7 18
10 3 2 4 -17 4 -24 -2 -34 2 -32 11 1 8 -2 11 -7 8 -13 -9 -103 39 -94 49 5 4
2 5 -6 0 -7 -4 -16 -4 -20 1 -3 5 -19 15 -35 22 -25 11 -26 15 -15 30 13 15
12 16 -3 4 -14 -11 -22 -11 -47 3 -17 8 -31 20 -31 25 0 6 -4 9 -9 8 -15 -5
-72 42 -65 53 3 6 -1 9 -9 7 -18 -4 -149 90 -142 102 3 5 0 12 -6 16 -8 4 -9
3 -5 -4 15 -24 -7 -11 -65 40 -66 57 -67 52 19 93 44 21 50 41 21 66 -13 12
-23 26 -21 31 1 5 -1 7 -6 4 -5 -3 -22 3 -38 13 -43 26 -120 49 -194 57 -50 5
-68 11 -80 28 -8 11 -14 24 -12 28 1 5 -2 7 -7 5 -14 -3 -93 91 -86 103 4 6 1
9 -7 8 -7 -2 -12 5 -12 14 1 10 -2 15 -7 13 -18 -12 -167 218 -244 376 -25 51
-47 85 -51 78 -3 -6 22 -68 57 -137 35 -69 63 -129 61 -134 -1 -4 4 -7 10 -6
7 2 12 -5 11 -15 0 -10 1 -16 4 -13 9 8 73 -95 66 -107 -3 -5 -1 -7 4 -4 14 9
37 -19 27 -34 -4 -8 -3 -9 4 -5 7 4 17 -3 24 -18 6 -14 14 -26 18 -26 15 0 64
-75 65 -99 1 -24 6 -31 20 -31 3 0 0 10 -6 23 -10 19 -7 17 20 -7 17 -17 31
-33 31 -38 0 -4 -19 -8 -42 -8 -27 0 -59 -9 -86 -25 l-43 -25 -26 28 c-14 15
-50 62 -80 105 -30 42 -59 77 -64 77 -15 0 -10 -13 21 -54 17 -22 30 -45 30
-52 0 -7 6 -17 13 -21 6 -4 29 -27 50 -51 31 -35 36 -46 26 -58 -6 -7 -16 -11
-22 -7 -5 3 -8 2 -4 -3 3 -5 0 -17 -7 -26 -11 -15 -25 -4 -123 95 -123 126
-205 230 -281 360 -78 133 -144 326 -154 446 -4 48 -24 51 -26 4z m26 -120
c42 -221 191 -468 430 -715 l103 -106 -39 -65 c-41 -68 -45 -99 -6 -50 l22 27
63 -13 c35 -7 74 -14 86 -16 21 -2 144 -81 183 -117 10 -10 22 -18 25 -18 3 0
35 -20 71 -44 l65 -43 -128 -5 c-136 -6 -213 -25 -301 -75 -62 -36 -42 -46 23
-11 30 16 55 26 55 21 0 -4 -23 -42 -50 -82 -28 -41 -50 -83 -50 -93 0 -27 8
-22 29 20 26 50 95 155 112 169 36 29 256 44 346 23 23 -5 68 -25 100 -44 32
-18 101 -56 153 -83 52 -27 104 -55 115 -61 30 -18 304 -144 355 -164 25 -10
25 -10 -15 -30 -102 -53 -208 -61 -313 -23 -38 14 -76 25 -85 25 -9 0 -19 5
-23 12 -5 8 16 9 84 4 57 -4 92 -3 92 3 0 15 -102 26 -238 26 -110 0 -122 2
-122 18 0 14 9 17 49 17 28 0 52 4 56 9 10 17 -108 24 -220 13 -122 -12 -197
-35 -292 -88 -35 -19 -68 -32 -73 -29 -6 3 -10 -2 -10 -11 0 -10 -7 -26 -17
-36 -9 -10 -13 -21 -9 -26 4 -4 14 2 22 12 14 19 14 19 39 -4 24 -23 33 -50
17 -50 -13 0 -95 -100 -88 -107 3 -3 26 16 51 43 l46 49 -22 -45 c-12 -25 -39
-69 -61 -98 -22 -30 -37 -56 -34 -60 4 -3 59 46 124 110 64 64 136 126 160
137 45 23 49 20 27 -19 -16 -28 -20 -117 -6 -153 9 -22 13 -24 62 -19 41 4 60
11 82 33 31 31 42 35 53 18 3 -6 20 -17 38 -24 26 -11 35 -11 58 1 16 8 29 21
29 29 3 28 4 33 11 40 12 12 88 -74 88 -100 0 -28 -50 -89 -91 -111 -15 -7
-43 -14 -62 -14 -35 0 -137 45 -137 61 0 12 -12 11 -47 -2 l-28 -10 25 -20
c71 -56 190 -70 266 -31 49 25 109 84 135 134 21 40 25 118 9 149 -15 27 5 25
24 -3 30 -42 16 -108 -38 -190 -26 -40 -1 -36 35 5 38 42 66 102 75 155 5 35
11 43 33 48 78 16 240 91 249 115 26 65 31 -276 7 -466 -21 -168 -52 -314 -90
-424 -40 -114 -70 -183 -77 -176 -2 3 -5 -1 -5 -8 0 -27 -86 -160 -144 -221
-32 -35 -59 -66 -59 -70 0 -11 39 -6 82 11 134 52 256 184 344 370 40 84 106
279 128 378 48 210 44 214 45 -45 0 -170 -5 -280 -18 -395 -20 -173 -68 -385
-106 -472 -21 -47 -22 -55 -9 -60 24 -9 203 86 225 120 4 5 13 6 20 2 8 -5 11
-4 6 0 -8 9 20 45 36 45 5 0 6 -7 3 -16 -3 -9 -2 -12 5 -9 5 4 7 15 4 26 -5
13 -2 19 10 19 9 0 14 4 11 8 -3 5 2 9 10 9 9 0 13 -6 10 -14 -3 -8 -1 -11 4
-8 15 9 42 66 36 73 -3 3 -6 -1 -6 -9 0 -12 -2 -12 -9 0 -6 9 -5 21 2 33 16
24 24 23 31 -7 5 -18 -3 -45 -25 -90 -17 -36 -35 -68 -40 -71 -17 -10 -9 -23
21 -39 30 -15 30 -15 30 12 0 26 -1 26 -15 7 -8 -10 -15 -14 -15 -7 0 6 15 23
33 37 l32 25 8 -31 c9 -33 5 -54 -39 -218 -22 -82 -38 -132 -61 -200 -3 -8 -7
-24 -8 -35 -6 -40 -148 -455 -155 -455 -5 0 -12 9 -15 21 -4 11 -9 18 -12 15
-3 -2 1 -17 8 -33 12 -24 11 -36 -6 -91 -12 -35 -23 -60 -27 -57 -3 3 -3 -7
-1 -22 4 -23 2 -25 -7 -13 -9 12 -10 12 -6 -5 5 -18 -19 -173 -28 -182 -1 -2
-45 2 -97 7 -52 6 -191 13 -310 17 l-217 6 -5 33 c-3 18 -21 63 -40 101 -18
37 -32 75 -29 83 3 8 1 12 -3 8 -11 -10 -117 181 -108 195 3 5 2 7 -4 4 -5 -3
-17 7 -26 23 l-18 29 36 24 c19 13 32 27 27 32 -4 4 1 5 11 2 10 -4 16 -3 13
1 -8 14 61 73 77 66 8 -3 18 -1 22 5 3 7 0 8 -9 5 -36 -14 -11 7 69 55 48 30
90 49 96 45 7 -4 9 -3 6 3 -7 11 149 130 165 125 5 -1 6 3 2 9 -5 9 -2 10 9 6
12 -4 14 -2 10 10 -5 13 -2 15 11 10 9 -4 15 -3 12 2 -3 4 26 39 64 76 39 37
67 71 64 77 -3 5 -36 -19 -73 -54 -232 -223 -658 -476 -941 -559 -99 -30 -256
-59 -347 -66 -79 -6 -84 -5 -159 31 -101 48 -203 120 -404 285 -193 159 -368
329 -433 422 -52 73 -116 198 -141 272 -38 112 -88 430 -116 732 -6 61 -19
151 -29 200 -10 50 -17 91 -16 93 2 2 21 -2 44 -8 33 -9 45 -19 61 -50 20 -39
106 -118 116 -107 4 3 -10 25 -30 48 -37 44 -41 56 -36 124 4 72 61 122 163
140 42 8 42 8 22 -31 -17 -34 -20 -123 -4 -157 9 -20 20 -26 62 -30 42 -4 58
0 88 18 35 23 36 23 52 4 22 -25 59 -24 82 1 16 18 19 18 41 3 20 -13 24 -24
24 -65 0 -44 -4 -54 -35 -85 -32 -32 -39 -35 -76 -29 -42 7 -103 45 -113 72
-6 17 -42 19 -52 3 -7 -12 35 -52 78 -75 43 -22 123 -24 158 -3 40 25 81 89
87 138 6 47 19 53 33 16 11 -28 30 -34 30 -9 0 20 -44 109 -74 149 -43 57 -37
60 14 6 54 -57 77 -63 40 -10 -34 47 -131 114 -210 144 -62 24 -102 57 -87 71
8 8 124 -43 173 -75 45 -31 64 -38 64 -23 0 20 -200 121 -240 122 -9 0 -20 4
-25 9 -6 5 -46 3 -96 -3 -62 -9 -101 -21 -141 -44 -48 -27 -58 -29 -68 -17 -7
8 -17 15 -23 15 -6 0 -4 -8 6 -17 16 -16 15 -19 -15 -50 -38 -39 -34 -53 5
-17 28 26 57 26 57 2 0 -7 -18 -26 -39 -42 -21 -15 -44 -38 -51 -51 -12 -23
-49 -45 -75 -45 -21 0 -31 25 -45 110 -20 120 -8 223 45 378 40 117 98 252
109 252 3 0 33 -7 68 -16 106 -28 251 -1 361 67 27 16 52 29 56 29 3 0 23 -25
43 -56 19 -31 38 -52 41 -47 18 28 -152 221 -219 249 -41 17 -110 13 -192 -12
-26 -7 -48 -11 -50 -9 -4 4 116 219 177 315 146 232 452 667 471 669 3 1 11
-29 18 -66z m861 -737 c24 -24 44 -48 45 -52 0 -5 4 -8 8 -7 4 2 24 -14 44
-35 l36 -37 -29 -12 c-58 -23 -153 -38 -171 -26 -9 6 -15 17 -14 25 2 7 0 10
-4 5 -4 -4 -18 3 -31 15 -19 17 -21 24 -10 37 10 14 10 14 -5 3 -14 -11 -18
-10 -31 9 -9 12 -13 29 -10 38 3 12 2 13 -4 3 -7 -10 -13 -8 -26 6 -16 18 -16
20 3 37 21 19 67 32 120 34 30 1 43 -7 79 -43z m141 23 c16 -6 27 -15 24 -20
-3 -5 3 -6 12 -2 13 5 15 3 9 -7 -5 -9 -4 -11 3 -6 15 9 64 -23 55 -37 -3 -5
-1 -7 5 -3 6 3 13 2 17 -3 7 -12 -28 -32 -47 -28 -7 2 -10 2 -5 0 19 -11 -6
-22 -26 -11 -20 10 -21 10 -8 -5 12 -15 11 -17 -7 -17 -12 0 -55 33 -104 81
l-83 81 62 -7 c35 -3 76 -11 93 -16z m-362 -69 c5 -13 3 -13 -14 0 -17 14 -18
13 -7 -1 7 -9 9 -19 5 -24 -4 -4 2 -3 13 2 17 8 29 -1 80 -55 l60 -64 -50 8
c-35 5 -63 17 -92 42 -24 19 -43 37 -43 39 0 3 7 0 15 -7 9 -7 18 -10 22 -6 3
3 1 6 -6 6 -7 0 -10 4 -7 9 3 4 -2 8 -12 8 -42 0 -44 3 -22 34 23 31 50 35 58
9z m-3 -128 c-5 -5 -99 20 -109 29 -6 5 -2 17 8 28 18 20 19 20 61 -17 24 -20
42 -38 40 -40z m398 0 c-2 -6 0 -11 5 -11 17 3 23 -2 15 -13 -11 -19 -13 -39
-2 -32 5 3 7 9 4 14 -3 4 1 10 7 13 15 5 130 -91 123 -103 -3 -4 3 -7 13 -6 9
0 16 -5 14 -12 -1 -8 2 -11 8 -7 13 8 71 -36 63 -48 -3 -6 -1 -7 6 -3 12 8 78
-41 74 -55 -2 -5 3 -6 10 -3 17 6 70 -43 62 -56 -3 -6 1 -7 10 -3 13 5 14 7 3
14 -7 5 -10 9 -5 9 4 0 24 -11 45 -23 20 -13 69 -41 107 -62 83 -45 90 -51 76
-59 -6 -4 -11 -3 -11 3 0 6 -6 8 -14 5 -8 -3 -24 0 -36 6 -13 7 -20 7 -16 2 8
-13 -4 -43 -14 -37 -5 3 -24 -2 -43 -11 -33 -16 -34 -16 -115 25 -45 23 -82
46 -82 52 0 5 6 7 13 3 7 -4 9 -3 4 2 -5 5 -12 9 -15 9 -14 1 -119 65 -142 87
-14 13 -26 22 -28 20 -7 -7 -60 33 -55 41 3 6 2 7 -4 4 -14 -9 -85 42 -77 55
4 7 2 8 -5 4 -18 -12 -125 69 -114 87 4 6 1 7 -6 3 -15 -10 -53 23 -44 37 3 5
1 7 -4 4 -6 -4 -17 1 -24 10 -12 14 -12 16 1 11 8 -2 46 6 85 18 74 24 112 26
108 6z m-1459 -12 c27 -10 116 -87 116 -100 0 -15 -122 -71 -197 -91 -56 -14
-94 -18 -133 -14 -71 8 -120 24 -120 38 0 7 15 39 33 72 31 57 35 61 97 82 69
24 161 30 204 13z m1239 -38 c6 -8 11 -18 9 -21 -2 -3 2 -7 10 -9 9 -2 8 0 -2
7 -8 6 -10 11 -4 11 16 0 45 -35 37 -45 -5 -4 -2 -5 4 -1 8 4 36 -12 70 -41
32 -26 82 -63 111 -82 28 -18 52 -35 52 -37 0 -16 -265 145 -340 206 l-35 29
38 -1 c20 -1 43 -8 50 -16z m-1575 -77 c-22 -46 -32 -53 -44 -34 -5 8 51 79
63 79 1 0 -7 -20 -19 -45z m-49 -59 c8 -10 2 -33 -27 -97 -21 -46 -49 -117
-62 -157 -12 -40 -24 -71 -26 -70 -6 6 33 184 57 261 23 76 36 90 58 63z
m5082 -35 c20 -16 23 -26 21 -80 -2 -53 -10 -75 -53 -154 -28 -51 -63 -108
-78 -127 -15 -19 -33 -45 -40 -58 -7 -12 -17 -20 -23 -16 -7 4 -8 3 -4 -5 5
-7 -23 -51 -68 -109 -42 -53 -93 -119 -114 -146 -82 -109 -120 -151 -131 -148
-7 1 -10 -2 -6 -8 8 -14 -84 -122 -98 -113 -6 4 -7 1 -2 -6 8 -14 -53 -84 -66
-75 -4 2 -11 -1 -15 -7 -4 -8 -3 -9 4 -5 7 4 12 3 12 -2 0 -13 -83 -77 -100
-77 -8 0 -15 -5 -15 -12 0 -17 -103 -96 -115 -88 -6 4 -9 2 -8 -4 2 -6 -9 -19
-23 -28 -94 -64 -123 -82 -205 -128 -134 -77 -271 -129 -407 -155 -33 -7 -37
-5 -31 9 11 26 93 272 104 314 11 36 12 37 58 37 65 0 220 18 262 31 50 15
240 99 272 121 14 10 29 18 33 18 3 0 22 12 41 26 19 15 34 23 34 18 0 -4 10
2 23 14 13 12 27 19 32 15 4 -5 4 -2 0 6 -6 10 -4 13 6 9 10 -4 15 1 15 13 0
24 -7 24 -37 1 -46 -36 -116 -72 -124 -64 -4 4 -5 2 -2 -4 6 -10 -45 -39 -160
-90 -29 -13 -53 -22 -53 -20 0 7 115 80 123 78 5 -1 6 2 3 7 -6 9 50 56 66 56
3 0 9 3 13 7 4 4 12 5 18 4 7 -2 9 -1 4 1 -4 3 -4 10 0 16 3 7 -4 3 -17 -8
-13 -11 14 23 61 75 46 52 97 112 113 132 15 21 33 35 39 31 6 -3 7 -1 3 5 -4
6 4 29 18 50 52 82 72 222 41 281 -16 32 -33 41 -78 41 -21 1 1 9 58 25 50 12
97 26 106 30 15 5 15 2 6 -33 -11 -43 -5 -83 19 -106 24 -24 78 -20 111 8 39
33 25 41 -25 14 -32 -18 -45 -21 -59 -12 -24 15 -31 53 -19 102 11 42 13 44
91 76 44 18 102 45 128 60 26 15 47 24 47 19 0 -22 -34 -109 -48 -123 -13 -13
-14 -13 -9 1 3 9 0 16 -8 16 -11 0 -11 -5 -3 -21 9 -17 6 -24 -21 -46 -34 -29
-39 -40 -17 -40 40 0 126 141 126 207 0 13 9 31 20 40 52 45 2 34 -71 -15 -24
-16 -80 -44 -124 -62 -44 -17 -95 -38 -113 -46 -19 -8 -113 -35 -210 -60 -363
-93 -362 -93 -362 -103 0 -5 26 -2 58 6 204 49 268 61 276 53 6 -6 23 -10 39
-10 47 0 65 -16 73 -65 17 -118 -39 -242 -175 -384 -27 -29 -41 -39 -37 -26 6
18 5 19 -7 3 -11 -14 -16 -15 -27 -5 -12 10 -12 9 -1 -5 7 -10 17 -15 22 -12
5 3 9 1 9 -4 0 -5 -19 -26 -42 -46 -24 -21 -62 -56 -85 -79 -38 -36 -44 -39
-60 -26 -16 12 -17 12 -6 -2 11 -13 7 -20 -25 -46 -129 -102 -187 -123 -345
-123 l-78 0 7 48 c7 51 29 113 44 122 5 3 17 34 26 69 17 67 13 124 -11 151
-9 10 -16 60 -20 142 l-8 127 34 21 c55 33 158 61 217 59 30 -2 57 2 60 8 4 6
16 13 27 16 32 8 -43 7 -126 -2 -52 -6 -98 -18 -143 -39 -41 -19 -66 -26 -66
-19 -1 7 -3 37 -6 68 l-6 55 108 18 c166 26 394 87 774 206 214 67 437 128
471 129 22 1 46 -7 60 -18z m-1337 -263 c41 8 64 8 84 0 26 -10 24 -11 -38
-24 -112 -22 -130 -17 -130 34 0 13 2 13 14 -3 12 -17 19 -17 70 -7z m-37 6
c-3 -3 -12 -4 -19 -1 -8 3 -5 6 6 6 11 1 17 -2 13 -5z m-91 -101 c-11 -11 -17
4 -9 23 7 18 8 18 11 1 2 -10 1 -21 -2 -24z m-1689 -22 c2 -15 -6 -19 -50 -25
-29 -3 -66 -8 -83 -11 -23 -5 -32 -2 -42 15 -7 12 -10 25 -7 28 7 7 166 20
174 14 3 -1 6 -11 8 -21z m-197 -20 c15 -28 12 -41 -7 -41 -10 0 -43 -14 -72
-30 -67 -37 -119 -47 -145 -27 -17 13 -15 16 33 46 54 35 135 70 163 71 10 0
22 -9 28 -19z m-1360 -111 l20 -28 -53 0 c-36 0 -63 7 -87 21 l-35 22 40 5
c83 10 95 8 115 -20z m3077 -212 c-1 -46 -3 -9 -3 82 0 91 2 128 3 83 2 -46 2
-120 0 -165z m47 112 c-2 -65 0 -84 5 -60 l8 35 2 -37 c0 -20 4 -45 7 -55 5
-15 4 -15 -5 -3 -9 12 -11 10 -11 -13 0 -16 -4 -26 -10 -22 -6 4 -10 63 -9
148 0 83 4 134 8 122 5 -11 7 -63 5 -115z m-3269 90 c22 -24 23 -23 -42 -44
-40 -13 -57 -15 -72 -6 -29 15 -26 22 22 47 53 28 69 28 92 3z m3398 -4 c3 -8
0 -19 -7 -25 -10 -9 -12 -6 -8 14 5 29 8 31 15 11z m-112 -68 c-4 -35 -6 -38
-9 -15 -3 26 3 57 10 57 2 0 1 -19 -1 -42z m128 -95 c-1 -78 -6 -74 -12 10 -2
31 0 57 5 57 4 0 8 -30 7 -67z m-912 -120 c-3 -10 -5 -2 -5 17 0 19 2 27 5 18
2 -10 2 -26 0 -35z m751 -153 c-5 -63 -12 -117 -15 -120 -3 -3 -2 33 2 80 5
47 8 119 8 160 0 63 1 69 7 35 5 -22 4 -92 -2 -155z m170 119 c-3 -33 -4 -33
-8 8 -3 23 -2 39 3 34 5 -5 7 -24 5 -42z m52 -6 c-1 -32 -7 -71 -16 -88 l-14
-30 5 40 c3 22 5 61 5 88 0 26 5 47 10 47 6 0 10 -26 10 -57z m-850 -33 c5 0
4 -12 -2 -26 -9 -19 -9 -42 0 -96 7 -39 10 -73 7 -76 -14 -14 -19 20 -21 136
-1 70 0 112 3 95 2 -18 8 -33 13 -33z m20 31 c0 -6 -4 -13 -10 -16 -5 -3 -10
1 -10 9 0 9 5 16 10 16 6 0 10 -4 10 -9z m570 -103 c0 -42 -4 -67 -8 -58 -8
15 -4 130 4 130 2 0 4 -33 4 -72z m210 58 c0 -8 -4 -18 -10 -21 -5 -3 -10 3
-10 14 0 12 5 21 10 21 6 0 10 -6 10 -14z m-910 -38 c0 -16 -3 -19 -11 -11 -6
6 -8 16 -5 22 11 17 16 13 16 -11z m127 -45 c-3 -10 -5 -2 -5 17 0 19 2 27 5
18 2 -10 2 -26 0 -35z m1701 16 c2 -19 -1 -28 -8 -24 -6 3 -7 11 -4 17 4 7 2
8 -4 4 -9 -5 -9 -13 -1 -29 11 -21 10 -21 -6 -5 -17 16 -17 18 -1 42 9 14 18
26 19 26 2 0 4 -14 5 -31z m-1071 -21 c-3 -8 -6 -5 -6 6 -1 11 2 17 5 13 3 -3
4 -12 1 -19z m-755 -46 c-6 -2 -8 -11 -5 -20 4 -11 3 -14 -4 -7 -6 6 -8 28 -5
50 l5 40 10 -29 c7 -21 7 -31 -1 -34z m884 -47 c-12 -46 -14 -50 -8 -15 3 25
6 61 6 80 -1 28 1 31 8 14 6 -12 4 -41 -6 -79z m931 42 l18 -22 -22 18 c-12
11 -26 16 -32 13 -5 -4 -12 -3 -15 2 -11 19 34 9 51 -11z m-63 5 c3 -5 -1 -9
-9 -9 -8 0 -12 4 -9 9 3 4 7 8 9 8 2 0 6 -4 9 -8z m-1067 -59 c-3 -10 -5 -2
-5 17 0 19 2 27 5 18 2 -10 2 -26 0 -35z m-164 15 c7 -25 -1 -85 -12 -107 -5
-7 -8 15 -7 50 1 46 -2 63 -11 62 -7 -2 -13 2 -13 7 0 21 38 10 43 -12z m-536
-30 c-3 -7 -5 -2 -5 12 0 14 2 19 5 13 2 -7 2 -19 0 -25z m1723 28 c0 -2 -8
-10 -17 -17 -16 -13 -17 -12 -4 4 13 16 21 21 21 13z m137 -18 c-3 -8 -6 -5
-6 6 -1 11 2 17 5 13 3 -3 4 -12 1 -19z m-1886 -97 c-20 -73 -27 -71 -28 9 -1
52 0 53 7 15 4 -22 8 -30 9 -17 1 20 22 65 27 59 2 -1 -5 -31 -15 -66z m716
47 c-3 -8 -6 -5 -6 6 -1 11 2 17 5 13 3 -3 4 -12 1 -19z m70 0 c-3 -8 -6 -5
-6 6 -1 11 2 17 5 13 3 -3 4 -12 1 -19z m-270 -25 c-3 -10 -5 -4 -5 12 0 17 2
24 5 18 2 -7 2 -21 0 -30z m240 5 c-3 -7 -5 -2 -5 12 0 14 2 19 5 13 2 -7 2
-19 0 -25z m150 -10 c-3 -7 -5 -2 -5 12 0 14 2 19 5 13 2 -7 2 -19 0 -25z
m763 28 c0 -2 -8 -10 -17 -17 -16 -13 -17 -12 -4 4 13 16 21 21 21 13z m217
-28 c-3 -7 -5 -2 -5 12 0 14 2 19 5 13 2 -7 2 -19 0 -25z m20 -10 c-3 -8 -6
-5 -6 6 -1 11 2 17 5 13 3 -3 4 -12 1 -19z m-1744 -7 c3 -14 1 -18 -9 -14 -8
3 -14 11 -14 19 0 21 17 17 23 -5z m1457 5 c0 -2 -8 -10 -17 -17 -16 -13 -17
-12 -4 4 13 16 21 21 21 13z m-1073 -58 c-3 -7 -5 -2 -5 12 0 14 2 19 5 13 2
-7 2 -19 0 -25z m-410 -70 c-2 -18 -4 -4 -4 32 0 36 2 50 4 33 2 -18 2 -48 0
-65z m-283 48 c-3 -15 -8 -25 -11 -23 -2 3 -1 17 3 31 3 15 8 25 11 23 2 -3 1
-17 -3 -31z m303 -3 c-3 -10 -5 -4 -5 12 0 17 2 24 5 18 2 -7 2 -21 0 -30z
m525 5 c-7 -7 -12 -8 -12 -2 0 6 3 14 7 17 3 4 9 5 12 2 2 -3 -1 -11 -7 -17z
m195 0 c-3 -8 -6 -5 -6 6 -1 11 2 17 5 13 3 -3 4 -12 1 -19z m-897 -7 c0 -3
-5 -13 -10 -21 -8 -12 -10 -10 -10 8 0 15 -4 21 -12 16 -7 -4 -8 -3 -4 4 7 11
36 6 36 -7z m197 -3 c-3 -8 -6 -5 -6 6 -1 11 2 17 5 13 3 -3 4 -12 1 -19z
m527 -105 c-19 -160 -23 -173 -42 -173 -39 1 -45 15 -23 61 25 54 61 167 61
189 0 14 8 30 15 30 1 0 -4 -48 -11 -107z m158 71 c-9 -16 -10 -14 -9 8 1 15
6 23 11 18 4 -4 4 -16 -2 -26z m-902 -11 c0 -5 -5 -15 -10 -23 -8 -12 -10 -11
-10 8 0 12 5 22 10 22 6 0 10 -3 10 -7z m1485 -3 c-3 -5 -12 -10 -18 -10 -7 0
-6 4 3 10 19 12 23 12 15 0z m-1593 -34 c7 4 8 2 4 -5 -9 -14 -36 3 -36 23 0
6 5 3 11 -7 6 -9 15 -14 21 -11z m299 -13 c-12 -20 -14 -14 -5 12 4 9 9 14 11
11 3 -2 0 -13 -6 -23z m313 -8 c5 -22 4 -26 -4 -15 -5 8 -10 24 -10 34 0 26 6
18 14 -19z m74 0 c-3 -3 -9 2 -12 12 -6 14 -5 15 5 6 7 -7 10 -15 7 -18z m199
-27 c-2 -13 -4 -5 -4 17 -1 22 1 32 4 23 2 -10 2 -28 0 -40z m110 30 c-3 -8
-6 -5 -6 6 -1 11 2 17 5 13 3 -3 4 -12 1 -19z m-1009 -28 c-2 -7 -10 1 -17 16
-12 27 -11 28 4 12 10 -9 16 -21 13 -28z m39 18 c-3 -8 -6 -5 -6 6 -1 11 2 17
5 13 3 -3 4 -12 1 -19z m50 -15 c-8 -15 -25 -48 -37 -73 -13 -25 -27 -49 -33
-55 -5 -5 -2 4 6 21 15 28 15 33 -1 55 -15 23 -15 23 1 10 15 -12 17 -11 17 5
0 16 2 17 11 4 8 -11 9 -6 5 20 -4 22 -3 30 3 21 7 -11 11 -10 22 7 19 30 24
19 6 -15z m720 5 c-3 -8 -6 -5 -6 6 -1 11 2 17 5 13 3 -3 4 -12 1 -19z m-841
-52 c-9 -20 -21 -36 -26 -36 -13 0 -13 3 6 50 11 28 20 38 27 31 7 -7 4 -22
-7 -45z m338 -76 l7 -25 -15 25 c-9 14 -15 47 -14 75 l0 50 8 -50 c4 -28 10
-62 14 -75z m307 77 c-10 -9 -11 -8 -5 6 3 10 9 15 12 12 3 -3 0 -11 -7 -18z
m370 -4 c-12 -20 -14 -14 -5 12 4 9 9 14 11 11 3 -2 0 -13 -6 -23z m-94 -30
c-3 -10 -5 -4 -5 12 0 17 2 24 5 18 2 -7 2 -21 0 -30z m-560 -10 c-3 -10 -5
-4 -5 12 0 17 2 24 5 18 2 -7 2 -21 0 -30z m983 -3 c-8 -5 -19 -10 -25 -10 -5
0 -3 5 5 10 8 5 20 10 25 10 6 0 3 -5 -5 -10z m-1383 -32 c1 -26 -1 -29 -7
-13 -6 17 -3 45 5 45 1 0 2 -15 2 -32z m44 -15 c12 -16 12 -17 -2 -6 -9 7 -20
9 -24 5 -5 -4 -5 -1 -1 6 9 16 11 15 27 -5z m29 -22 c-9 -18 -39 -47 -41 -40
0 2 -2 15 -3 28 -3 21 -2 22 10 7 11 -16 13 -16 19 3 3 12 3 26 -1 33 -6 9 -3
9 9 -1 12 -9 14 -18 7 -30z m277 7 c-3 -7 -5 -2 -5 12 0 14 2 19 5 13 2 -7 2
-19 0 -25z m306 12 c-5 -19 -23 -39 -23 -25 0 9 20 45 24 45 2 0 2 -9 -1 -20z
m170 5 c-3 -9 -8 -14 -10 -11 -3 3 -2 9 2 15 9 16 15 13 8 -4z m-136 -17 c-3
-8 -6 -5 -6 6 -1 11 2 17 5 13 3 -3 4 -12 1 -19z m-707 2 c0 -5 -2 -10 -4 -10
-3 0 -8 5 -11 10 -3 6 -1 10 4 10 6 0 11 -4 11 -10z m697 -52 c-3 -7 -5 -2 -5
12 0 14 2 19 5 13 2 -7 2 -19 0 -25z m314 -5 c-12 -20 -14 -14 -5 12 4 9 9 14
11 11 3 -2 0 -13 -6 -23z m-654 -20 c-3 -10 -5 -4 -5 12 0 17 2 24 5 18 2 -7
2 -21 0 -30z m376 17 c-3 -12 -8 -19 -11 -16 -5 6 5 36 12 36 2 0 2 -9 -1 -20z
m-689 -11 c-3 -5 -10 -7 -15 -4 -5 4 -9 1 -9 -6 0 -14 -49 -69 -61 -69 -11 0
-2 39 11 56 7 7 9 18 5 24 -3 5 -1 10 4 10 16 0 13 -22 -6 -49 -10 -15 -11
-22 -4 -20 7 3 20 18 29 34 9 17 21 33 27 37 12 9 27 -1 19 -13z m-84 -7 c0
-5 -7 -9 -15 -9 -8 0 -12 4 -9 9 3 4 9 8 15 8 5 0 9 -4 9 -8z m730 -2 c0 -5
-2 -10 -4 -10 -3 0 -8 5 -11 10 -3 6 -1 10 4 10 6 0 11 -4 11 -10z m-750 -47
c0 -9 -6 -13 -14 -10 -10 4 -14 -1 -13 -14 1 -12 7 -17 15 -14 7 2 10 0 7 -5
-10 -16 -38 -12 -31 5 3 8 1 15 -3 15 -15 0 -22 -33 -9 -42 8 -6 4 -7 -11 -3
-15 5 -21 3 -17 -3 4 -6 -3 -16 -15 -22 -17 -10 -20 -9 -13 2 24 40 78 97 87
91 6 -4 8 0 4 11 -4 10 -3 15 3 11 6 -3 10 -13 10 -22z m408 -27 c-2 -30 -6
-51 -11 -47 -7 7 2 101 10 101 2 0 2 -24 1 -54z m315 5 c-4 -15 -8 -19 -13
-10 -5 6 -3 18 3 24 16 17 17 14 10 -14z m-73 -11 c-6 -11 -13 -20 -16 -20 -2
0 0 9 6 20 6 11 13 20 16 20 2 0 0 -9 -6 -20z m360 -23 c0 -5 -4 -6 -9 -3 -5
3 -11 -8 -15 -26 -3 -17 -8 -29 -11 -27 -2 3 1 24 7 48 7 29 13 38 19 29 5 -7
9 -17 9 -21z m1373 -37 c-3 -12 -8 -19 -11 -16 -5 6 5 36 12 36 2 0 2 -9 -1
-20z m-1440 -10 c-3 -12 -8 -19 -11 -16 -5 6 5 36 12 36 2 0 2 -9 -1 -20z
m-298 -30 c-5 -8 -11 -8 -17 -2 -6 6 -7 16 -3 22 5 8 11 8 17 2 6 -6 7 -16 3
-22z m-257 -5 c-3 -3 -9 2 -12 12 -6 14 -5 15 5 6 7 -7 10 -15 7 -18z m177 -5
c-10 -11 -21 -17 -24 -14 -3 3 3 12 13 20 28 20 32 17 11 -6z m226 -3 c-10 -9
-11 -8 -5 6 3 10 9 15 12 12 3 -3 0 -11 -7 -18z m-50 -54 c-9 -16 -10 -16 -11
-1 0 9 3 25 7 35 7 16 8 17 11 1 2 -10 -1 -25 -7 -35z m-206 28 c3 -5 0 -13
-6 -17 -8 -5 -9 -3 -4 6 5 8 3 11 -6 8 -8 -3 -14 -10 -14 -15 0 -6 -3 -14 -6
-17 -3 -3 -6 2 -6 12 0 26 30 42 42 23z m-55 -44 c0 -2 -10 -12 -21 -23 -22
-19 -22 -19 -10 4 10 18 31 31 31 19z m1959 -42 c0 -5 -4 -3 -9 5 -5 8 -9 22
-9 30 0 16 17 -16 18 -35z m-2029 -3 c0 -5 -11 -14 -25 -20 -39 -18 -44 -14
-10 7 36 23 35 23 35 13z m441 -145 c-10 -9 -11 -8 -5 6 3 10 9 15 12 12 3 -3
0 -11 -7 -18z m-36 -273 c-8 -66 -19 -182 -24 -259 l-8 -140 -2 109 c0 60 -4
106 -8 103 -3 -4 -6 -35 -5 -70 1 -34 -4 -82 -12 -107 -9 -28 -15 -37 -15 -22
-1 13 -7 22 -16 22 -8 0 -15 5 -15 12 0 6 -7 20 -17 30 -9 10 -12 18 -7 18 5
0 17 -12 26 -27 12 -19 18 -22 18 -12 0 9 -9 28 -20 42 -22 28 -26 42 -9 31 8
-4 9 1 4 16 -5 15 -4 20 4 16 6 -4 11 -2 11 4 0 6 4 9 9 6 5 -3 11 4 15 17 9
34 7 49 -5 42 -6 -4 -8 -14 -4 -24 4 -11 3 -13 -5 -5 -8 8 -8 19 1 40 7 16 13
36 15 44 5 27 79 239 82 235 2 -1 -4 -56 -13 -121z m-2443 -242 c37 -29 68
-56 70 -60 6 -15 176 -122 232 -148 56 -25 64 -26 170 -21 97 5 203 22 269 43
13 4 17 2 13 -5 -4 -6 -16 -11 -27 -11 -10 0 -19 -4 -19 -9 0 -5 -9 -11 -20
-14 -13 -3 -18 -1 -13 6 4 7 0 8 -13 2 -10 -4 -35 -10 -54 -12 -65 -7 -168
-32 -130 -31 64 2 103 -2 97 -9 -4 -3 -39 -7 -79 -8 -68 -2 -73 -4 -76 -25 -2
-14 0 -20 7 -16 7 5 11 -3 11 -18 0 -19 -5 -26 -20 -26 -19 0 -20 -7 -20 -120
0 -113 -1 -120 -20 -120 -13 0 -20 -7 -20 -20 0 -17 7 -20 40 -20 33 0 40 -3
40 -20 0 -17 7 -20 43 -21 23 -1 49 0 57 1 11 1 10 -3 -5 -21 -20 -22 -20 -22
0 -14 38 15 65 17 65 6 0 -6 -3 -10 -7 -9 -17 3 -43 -15 -43 -30 0 -13 2 -13
14 3 8 11 20 16 29 12 9 -3 16 -3 16 1 -4 23 3 34 17 28 31 -12 127 54 117 80
-9 25 13 15 25 -11 11 -24 9 -25 -86 -71 -53 -26 -135 -71 -181 -101 -58 -38
-86 -51 -91 -43 -5 9 -9 9 -14 1 -4 -6 -2 -11 5 -11 7 0 5 -8 -6 -20 -10 -11
-23 -20 -28 -20 -11 0 -104 -80 -223 -193 -78 -74 -83 -77 -94 -57 -6 11 -8
26 -4 32 4 6 3 8 -4 4 -14 -9 -76 102 -107 194 -36 107 -55 221 -56 339 -2
174 14 255 78 419 24 63 42 116 40 119 -5 5 -73 -167 -101 -252 -32 -101 -66
-304 -72 -431 -7 -142 7 -318 33 -393 20 -61 62 -152 80 -172 12 -14 8 -24
-30 -79 -24 -35 -48 -65 -54 -67 -13 -5 -108 198 -127 273 -38 151 -43 318
-14 508 9 62 69 284 143 531 15 50 34 114 42 142 18 59 12 60 105 -15z m1093
-71 c8 -14 -9 -21 -35 -14 -22 6 -23 7 -4 14 26 10 32 10 39 0z m-88 -28 c-15
-4 -16 -7 -5 -21 11 -15 11 -15 -3 -4 -9 7 -25 10 -35 6 -11 -3 -9 1 6 10 14
8 32 15 40 14 10 0 9 -2 -3 -5z m63 -3 c9 -6 20 -5 30 3 13 10 13 10 1 -5 -10
-14 -17 -15 -35 -6 -27 14 -32 18 -20 18 5 0 16 -4 24 -10z m1260 -19 c0 -6
-4 -13 -10 -16 -5 -3 -10 1 -10 9 0 9 5 16 10 16 6 0 10 -4 10 -9z m-1415 -21
c3 -5 1 -10 -4 -10 -6 0 -11 5 -11 10 0 6 2 10 4 10 3 0 8 -4 11 -10z m204
-20 c11 -24 11 -24 -3 -6 -9 11 -16 24 -16 30 0 12 5 7 19 -24z m1181 9 c0 -6
-8 -18 -17 -27 -16 -16 -16 -16 -10 1 4 10 7 23 7 28 0 5 5 9 10 9 6 0 10 -5
10 -11z m-1273 -31 c-3 -7 -5 -2 -5 12 0 14 2 19 5 13 2 -7 2 -19 0 -25z
m1323 18 c0 -7 -8 -16 -17 -20 -10 -3 -25 -9 -33 -12 -8 -4 -4 5 9 20 27 29
41 33 41 12z m-1515 -7 c11 -16 1 -19 -13 -3 -7 8 -8 14 -3 14 5 0 13 -5 16
-11z m-48 -14 c0 -8 -4 -12 -9 -9 -4 3 -8 9 -8 15 0 5 4 9 8 9 5 0 9 -7 9 -15z
m103 5 c18 -12 2 -12 -25 0 -13 6 -15 9 -5 9 8 0 22 -4 30 -9z m1479 -57 l-2
-68 -7 60 c-6 56 -5 75 6 75 2 0 3 -30 3 -67z m41 -47 c0 -45 2 -97 4 -116 2
-19 1 -24 -2 -10 -5 25 -5 25 -12 -5 -5 -22 -7 -13 -8 35 -1 36 -4 99 -7 140
-5 68 -4 73 10 56 11 -14 15 -44 15 -100z m-1352 44 c0 -9 -3 -7 -8 5 -5 11
-8 29 -8 40 0 16 2 15 8 -5 4 -14 8 -32 8 -40z m1206 6 c-3 -15 -8 -25 -11
-23 -2 3 -1 17 3 31 3 15 8 25 11 23 2 -3 1 -17 -3 -31z m-1524 8 c0 -8 -5
-12 -10 -9 -6 4 -8 11 -5 16 9 14 15 11 15 -7z m69 -45 c1 8 3 12 6 9 3 -3 -1
-20 -9 -39 l-15 -34 1 30 c0 17 -3 41 -6 55 -6 20 -4 19 8 -5 8 -16 15 -24 15
-16z m-196 24 c-7 -2 -21 -2 -30 0 -10 3 -4 5 12 5 17 0 24 -2 18 -5z m108
-18 c6 14 7 9 3 -15 -15 -77 -4 -224 21 -306 4 -10 -1 -7 -10 9 -18 30 -47
229 -32 220 6 -3 7 20 4 58 -3 35 -3 53 0 39 5 -24 6 -24 14 -5z m376 3 c-3
-8 -6 -5 -6 6 -1 11 2 17 5 13 3 -3 4 -12 1 -19z m-470 -4 c-3 -3 -12 -4 -19
-1 -8 3 -5 6 6 6 11 1 17 -2 13 -5z m441 -11 c-1 -10 2 -29 6 -43 7 -24 7 -24
-6 -5 -20 27 -30 58 -18 50 6 -3 10 -1 10 4 0 6 2 11 4 11 3 0 4 -8 4 -17z
m79 -15 c-3 -7 -5 -2 -5 12 0 14 2 19 5 13 2 -7 2 -19 0 -25z m-460 16 c-3 -3
-12 -4 -19 -1 -8 3 -5 6 6 6 11 1 17 -2 13 -5z m1573 -6 c0 6 5 12 12 12 9 0
9 -3 0 -12 -7 -7 -12 -19 -12 -27 0 -12 2 -13 8 -4 5 8 8 -2 8 -22 0 -20 -4
-34 -10 -32 -6 2 -10 15 -9 28 2 16 -4 10 -19 -21 -11 -25 -22 -58 -23 -75 -2
-16 -6 -60 -10 -97 l-7 -68 29 -1 c24 0 25 -2 8 -8 -19 -8 -18 -9 5 -14 18 -4
15 -5 -10 -4 l-35 2 0 111 c0 78 4 116 13 127 8 9 10 22 6 29 -4 7 -4 10 1 6
4 -4 14 4 22 18 15 31 17 48 3 39 -11 -7 -14 8 -3 18 4 4 10 2 15 -5 6 -10 8
-10 8 0z m-1147 -18 c-3 -12 -8 -19 -11 -16 -5 6 5 36 12 36 2 0 2 -9 -1 -20z
m-287 -98 c-8 -8 -12 -1 -20 33 l-6 30 16 -28 c8 -16 13 -31 10 -35z m310 7
c1 -25 -1 -28 -8 -15 -5 10 -7 24 -4 32 8 21 11 17 12 -17z m1241 9 c-3 -8 -6
-5 -6 6 -1 11 2 17 5 13 3 -3 4 -12 1 -19z m-100 -50 c-3 -8 -6 -5 -6 6 -1 11
2 17 5 13 3 -3 4 -12 1 -19z m-1425 -11 c7 4 9 0 5 -10 -3 -9 -2 -19 3 -22 6
-4 10 -12 10 -18 0 -7 -9 2 -20 18 -11 17 -19 37 -19 45 1 11 3 10 6 -3 2 -9
9 -14 15 -10z m371 -17 c3 -11 1 -18 -4 -14 -5 3 -9 12 -9 20 0 20 7 17 13 -6z
m1192 -75 c-3 -36 -10 -65 -14 -65 -7 0 -5 45 5 109 9 58 17 24 9 -44z m-1224
11 c1 -6 5 0 9 14 l8 25 1 -24 c1 -16 5 -21 15 -18 10 4 13 1 10 -8 -10 -25
-42 -12 -58 25 -14 29 -14 32 -1 16 8 -11 15 -25 16 -30z m134 14 c2 -12 1
-20 -2 -16 -4 4 -8 16 -10 28 -4 28 6 18 12 -12z m-633 -12 c-8 -8 -9 -4 -5
13 4 13 8 18 11 10 2 -7 -1 -18 -6 -23z m240 -47 c8 -10 27 -12 77 -7 36 4 68
11 71 16 9 14 84 16 95 2 7 -9 19 -10 45 -2 19 5 42 7 51 5 10 -3 20 -1 24 5
8 12 45 14 45 1 0 -12 -63 -23 -85 -15 -11 5 -16 3 -12 -2 3 -6 -4 -11 -16
-11 -12 -1 -60 -6 -107 -11 -223 -27 -203 -27 -223 9 -14 25 -15 29 -2 19 16
-14 20 -3 6 19 -5 7 -14 11 -20 7 -7 -5 -8 -1 -4 10 6 15 8 14 25 -7 10 -13
23 -30 30 -38z m88 9 c0 -5 -9 -10 -20 -10 -11 0 -20 5 -20 10 0 6 9 10 20 10
11 0 20 -4 20 -10z m1407 -32 c-3 -8 -6 -5 -6 6 -1 11 2 17 5 13 3 -3 4 -12 1
-19z m-1707 -48 c0 -5 -4 -10 -10 -10 -5 0 -10 5 -10 10 0 6 5 10 10 10 6 0
10 -4 10 -10z m1587 4 c-3 -3 -12 -4 -19 -1 -8 3 -5 6 6 6 11 1 17 -2 13 -5z
m133 -7 c0 -9 -12 -11 -42 -8 l-43 5 40 7 c22 3 41 7 43 8 1 0 2 -5 2 -12z
m-1750 -21 c0 -15 -31 -30 -66 -31 -11 0 -21 5 -21 12 0 8 14 13 39 13 21 0
38 5 38 10 0 6 2 10 5 10 3 0 5 -6 5 -14z m1585 -5 c22 -5 32 -9 23 -10 -10 0
-18 -7 -18 -13 0 -9 -4 -8 -10 2 -8 13 -10 13 -10 1 0 -11 -4 -9 -14 5 -8 10
-18 16 -22 11 -4 -4 -2 -7 4 -7 7 0 12 -5 12 -11 0 -5 -4 -7 -10 -4 -6 3 -7
-1 -4 -9 3 -9 10 -13 15 -10 8 5 10 -2 13 -48 1 -9 4 -20 9 -24 4 -4 5 12 2
35 -4 29 -2 40 5 36 7 -4 9 -26 6 -53 -5 -54 2 -77 24 -77 9 0 14 -7 12 -19
-2 -11 1 -15 7 -11 6 3 11 14 11 23 0 12 3 13 12 4 14 -14 19 -74 5 -65 -5 3
-7 0 -5 -8 3 -8 11 -13 17 -11 7 1 9 -3 6 -9 -5 -8 -12 -7 -22 4 -12 12 -13
19 -3 37 14 26 8 37 -10 16 -10 -13 -15 -12 -34 12 -31 39 -67 108 -60 115 4
3 -1 13 -10 22 -9 9 -16 22 -16 30 0 7 -3 20 -6 29 -7 18 8 20 71 7z m160 -32
c16 -6 14 -8 -13 -8 -18 -1 -40 6 -49 14 -14 14 -13 15 13 9 16 -4 38 -11 49
-15z m25 -31 c0 -4 -14 -8 -31 -8 -17 0 -28 4 -24 10 7 11 55 9 55 -2z m-13
-43 c1 -14 0 -15 -3 -3 -3 9 -15 19 -27 22 -18 4 -18 4 3 3 17 -1 25 -8 27
-22z m20 -27 c-3 -8 -6 -5 -6 6 -1 11 2 17 5 13 3 -3 4 -12 1 -19z m3 -53 c0
-5 -5 -3 -10 5 -5 8 -10 20 -10 25 0 6 5 3 10 -5 5 -8 10 -19 10 -25z m17 -17
c-3 -8 -6 -5 -6 6 -1 11 2 17 5 13 3 -3 4 -12 1 -19z m-103 -94 c3 -8 2 -12
-4 -9 -6 3 -10 10 -10 16 0 14 7 11 14 -7z m36 -14 c-13 -9 -12 -12 4 -25 11
-8 15 -15 9 -15 -16 0 -36 28 -28 40 3 5 12 10 18 10 7 0 6 -4 -3 -10z m83
-40 c4 0 5 6 1 13 -4 6 -3 8 1 4 5 -4 10 -14 11 -22 2 -11 -2 -12 -16 -5 -11
6 -22 16 -26 23 -5 9 -4 9 7 0 7 -7 17 -13 22 -13z m-6 -37 c-4 -3 1 -15 10
-27 18 -20 18 -20 -8 0 -18 12 -23 21 -15 26 14 10 21 10 13 1z m50 -40 c-4
-3 -1 -13 6 -22 11 -14 10 -14 -5 -2 -16 12 -16 31 -1 31 4 0 3 -3 0 -7z
m-397 -53 c0 -5 -7 -10 -15 -10 -8 0 -15 5 -15 10 0 6 7 10 15 10 8 0 15 -4
15 -10z m165 -60 c4 -6 1 -9 -7 -8 -7 2 -12 -2 -11 -8 1 -6 -5 -11 -13 -11
-11 0 -11 4 3 19 19 21 20 21 28 8z m-95 -10 c0 -5 -5 -10 -11 -10 -5 0 -7 5
-4 10 3 6 8 10 11 10 2 0 4 -4 4 -10z m125 -40 c3 -5 1 -10 -4 -10 -6 0 -11 5
-11 10 0 6 2 10 4 10 3 0 8 -4 11 -10z m34 -14 c9 -10 7 -17 -6 -27 -16 -13
-17 -12 -4 4 9 11 10 17 2 17 -6 0 -11 5 -11 10 0 14 5 13 19 -4z m78 -111 c0
-8 -4 -12 -9 -9 -5 3 -6 10 -3 15 9 13 12 11 12 -6z m108 -45 c10 -11 16 -20
13 -20 -3 0 -13 9 -23 20 -10 11 -16 20 -13 20 3 0 13 -9 23 -20z m206 -177
c13 -16 12 -17 -3 -4 -10 7 -18 15 -18 17 0 8 8 3 21 -13z m-1235 -251 c-3 -3
-6 1 -6 9 0 11 -2 11 -8 1 -6 -8 -9 -1 -9 19 l0 31 14 -27 c8 -15 12 -29 9
-33z m54 -1 c0 -9 5 -22 11 -28 7 -7 7 -13 1 -17 -6 -3 -13 7 -17 24 -4 16
-11 32 -16 35 -5 4 -9 11 -9 17 0 7 6 6 15 -2 8 -7 15 -20 15 -29z m33 -71 c3
-11 1 -18 -4 -14 -5 3 -9 12 -9 20 0 20 7 17 13 -6z m46 -98 c6 -12 6 -23 0
-33 -9 -12 -10 -12 -6 1 2 8 0 23 -5 33 -5 9 -6 17 -4 17 3 0 10 -8 15 -18z
m638 -4 c-3 -8 -6 -5 -6 6 -1 11 2 17 5 13 3 -3 4 -12 1 -19z m-687 -13 c0 -8
-2 -15 -4 -15 -2 0 -6 7 -10 15 -3 8 -1 15 4 15 6 0 10 -7 10 -15z m67 -57
c-3 -8 -6 -5 -6 6 -1 11 2 17 5 13 3 -3 4 -12 1 -19z m-287 -108 c0 -6 -33
-10 -80 -10 -47 0 -80 4 -80 10 0 6 33 10 80 10 47 0 80 -4 80 -10z m-261
-124 c0 -6 -7 3 -15 19 l-15 30 6 -30 c5 -23 4 -27 -5 -18 -8 7 -9 23 -5 44
l7 32 14 -32 c8 -19 14 -38 13 -45z m91 44 c0 -5 -4 -10 -10 -10 -5 0 -10 5
-10 10 0 6 5 10 10 10 6 0 10 -4 10 -10z m-143 -22 c-3 -8 -6 -5 -6 6 -1 11 2
17 5 13 3 -3 4 -12 1 -19z m120 -30 c-3 -7 -5 -2 -5 12 0 14 2 19 5 13 2 -7 2
-19 0 -25z m-47 -68 c0 -17 -23 13 -33 45 -6 16 -3 15 13 -5 11 -14 20 -32 20
-40z m50 9 c0 -5 -4 -9 -10 -9 -5 0 -10 7 -10 16 0 8 5 12 10 9 6 -3 10 -10
10 -16z m17 -11 c-3 -7 -5 -2 -5 12 0 14 2 19 5 13 2 -7 2 -19 0 -25z m514 1
c-5 -13 -10 -19 -10 -12 -1 15 10 45 15 40 3 -2 0 -15 -5 -28z m-568 -56 c-4
-22 -2 -25 7 -13 8 12 9 9 4 -14 -5 -22 -4 -27 6 -21 9 5 11 4 6 -4 -4 -6 -2
-18 4 -26 8 -9 8 -15 2 -15 -13 0 -43 78 -40 107 1 12 5 20 9 18 3 -3 4 -17 2
-32z m47 27 c0 -5 -5 -10 -11 -10 -5 0 -7 5 -4 10 3 6 8 10 11 10 2 0 4 -4 4
-10z m51 -94 c5 13 8 14 8 4 0 -8 -4 -22 -9 -30 -9 -13 -12 -12 -25 4 -20 27
-19 41 2 20 16 -15 17 -15 24 2z m-104 -18 c-3 -8 -6 -5 -6 6 -1 11 2 17 5 13
3 -3 4 -12 1 -19z"/>
<path d="M2005 5023 c-96 -7 -307 -94 -284 -118 3 -3 31 9 61 25 72 39 162 70
203 70 55 0 143 -46 201 -106 36 -37 54 -49 54 -38 0 24 -80 98 -137 128 -42
22 -45 25 -21 26 14 0 62 -7 105 -15 92 -18 83 -17 83 -7 0 12 -142 42 -183
40 -18 -1 -54 -3 -82 -5z"/>
<path d="M3745 4500 c-3 -6 1 -7 9 -4 18 7 21 14 7 14 -6 0 -13 -4 -16 -10z"/>
<path d="M3725 4471 l-30 -7 26 -7 c14 -3 31 -17 37 -29 l11 -23 0 25 c1 19 4
21 10 11 7 -10 9 -6 8 13 -2 22 -4 24 -13 11 -14 -19 -28 -19 -20 0 3 8 4 14
3 14 -1 -1 -15 -4 -32 -8z"/>
<path d="M3613 4463 c9 -2 23 -2 30 0 6 3 -1 5 -18 5 -16 0 -22 -2 -12 -5z"/>
<path d="M3535 4450 c-3 -5 -1 -10 4 -10 6 0 11 5 11 10 0 6 -2 10 -4 10 -3 0
-8 -4 -11 -10z"/>
<path d="M3565 4440 c-3 -5 -2 -10 4 -10 5 0 13 5 16 10 3 6 2 10 -4 10 -5 0
-13 -4 -16 -10z"/>
<path d="M3545 4410 c-3 -5 -1 -10 4 -10 6 0 11 5 11 10 0 6 -2 10 -4 10 -3 0
-8 -4 -11 -10z"/>
<path d="M3782 4313 c5 -25 28 -28 28 -4 0 12 -6 21 -16 21 -9 0 -14 -7 -12
-17z"/>
<path d="M2228 4313 c6 -2 18 -2 25 0 6 3 1 5 -13 5 -14 0 -19 -2 -12 -5z"/>
<path d="M3712 4291 c-10 -6 -9 -11 3 -21 11 -9 19 -10 26 -3 13 13 -12 35
-29 24z"/>
<path d="M3599 4270 c-14 -4 -61 -11 -105 -16 -43 -4 -68 -10 -54 -12 14 -2
30 -10 37 -18 10 -14 12 -14 20 0 12 22 92 25 104 3 13 -23 32 -22 24 2 -4 14
0 21 15 26 11 3 20 11 20 16 0 11 -24 10 -61 -1z"/>
<path d="M1870 4184 c0 -17 22 -14 28 4 2 7 -3 12 -12 12 -9 0 -16 -7 -16 -16z"/>
<path d="M1917 4176 c-3 -8 -3 -17 0 -20 9 -9 34 15 27 25 -8 13 -21 11 -27
-5z"/>
<path d="M2010 4151 c0 -8 6 -11 15 -7 9 3 15 0 15 -10 0 -11 6 -14 16 -10 50
19 64 18 64 -3 0 -26 17 -28 25 -2 3 11 19 22 35 26 57 12 30 20 -70 20 -78 0
-100 -3 -100 -14z"/>
<path d="M2280 4085 c-12 -20 -35 -42 -51 -50 -31 -16 -39 -35 -15 -35 15 0
106 96 106 111 0 20 -20 7 -40 -26z"/>
<path d="M2168 3940 c-11 -33 38 -150 87 -209 47 -54 47 -33 0 34 -24 36 -49
84 -56 108 -18 69 -25 84 -31 67z"/>
<path d="M2410 3795 c0 -9 5 -15 11 -13 6 2 11 8 11 13 0 5 -5 11 -11 13 -6 2
-11 -4 -11 -13z"/>
<path d="M4676 3337 c3 -10 9 -15 12 -12 3 3 0 11 -7 18 -10 9 -11 8 -5 -6z"/>
<path d="M2544 3228 c-7 -11 45 -30 63 -23 8 2 12 9 9 14 -8 12 -66 20 -72 9z"/>
<path d="M2701 3228 c-65 -15 -37 -30 34 -18 33 5 77 10 98 10 20 0 37 5 37
10 0 13 -110 11 -169 -2z"/>
<path d="M4216 2968 c3 -5 10 -6 15 -3 13 9 11 12 -6 12 -8 0 -12 -4 -9 -9z"/>
<path d="M4004 2920 c0 -13 4 -16 10 -10 7 7 7 13 0 20 -6 6 -10 3 -10 -10z"/>
<path d="M4140 2901 c0 -6 4 -13 10 -16 6 -3 7 1 4 9 -7 18 -14 21 -14 7z"/>
<path d="M4501 2470 c0 -8 4 -24 9 -35 5 -13 9 -14 9 -5 0 8 -4 24 -9 35 -5
13 -9 14 -9 5z"/>
<path d="M4392 2200 c-1 -41 0 -43 11 -22 7 12 16 19 20 16 4 -4 7 6 7 22 -1
27 -2 28 -14 11 -14 -18 -14 -18 -19 0 -3 10 -5 -2 -5 -27z"/>
<path d="M4401 2114 c0 -11 3 -14 6 -6 3 7 2 16 -1 19 -3 4 -6 -2 -5 -13z"/>
<path d="M4422 2095 c0 -16 2 -22 5 -12 2 9 2 23 0 30 -3 6 -5 -1 -5 -18z"/>
<path d="M4310 2070 c-9 -6 -10 -10 -3 -10 6 0 15 5 18 10 8 12 4 12 -15 0z"/>
<path d="M4388 2033 c6 -2 18 -2 25 0 6 3 1 5 -13 5 -14 0 -19 -2 -12 -5z"/>
<path d="M3480 5506 c0 -2 7 -7 16 -10 8 -3 12 -2 9 4 -6 10 -25 14 -25 6z"/>
<path d="M3570 5270 c8 -5 20 -10 25 -10 6 0 3 5 -5 10 -8 5 -19 10 -25 10 -5
0 -3 -5 5 -10z"/>
<path d="M3704 5232 c13 -15 22 -19 27 -11 4 6 12 8 19 4 9 -6 11 -4 6 4 -5 7
-15 10 -23 7 -9 -4 -23 -1 -32 6 -10 8 -9 4 3 -10z"/>
<path d="M3787 5119 c7 -7 15 -10 18 -7 3 3 -2 9 -12 12 -14 6 -15 5 -6 -5z"/>
<path d="M3815 5100 c-3 -6 1 -7 9 -4 18 7 21 14 7 14 -6 0 -13 -4 -16 -10z"/>
<path d="M3986 5063 c17 -18 57 -26 48 -11 -4 5 -12 7 -19 4 -7 -2 -16 2 -19
10 -3 8 -10 14 -16 14 -6 0 -4 -8 6 -17z"/>
<path d="M4107 4999 c7 -7 15 -10 18 -7 3 3 -2 9 -12 12 -14 6 -15 5 -6 -5z"/>
<path d="M5835 4950 c-3 -6 1 -7 9 -4 18 7 21 14 7 14 -6 0 -13 -4 -16 -10z"/>
<path d="M5970 4196 c0 -2 7 -7 16 -10 8 -3 12 -2 9 4 -6 10 -25 14 -25 6z"/>
<path d="M5923 4065 c0 -8 4 -12 9 -9 5 3 6 10 3 15 -9 13 -12 11 -12 -6z"/>
<path d="M5925 4031 c-3 -5 0 -13 6 -17 7 -4 9 -3 5 4 -3 5 0 13 6 15 9 4 10
6 1 6 -6 1 -14 -3 -18 -8z"/>
<path d="M5620 3820 c-9 -6 -10 -10 -3 -10 6 0 15 5 18 10 8 12 4 12 -15 0z"/>
<path d="M5228 3663 c7 -3 16 -2 19 1 4 3 -2 6 -13 5 -11 0 -14 -3 -6 -6z"/>
<path d="M4840 2775 c0 -5 5 -17 10 -25 5 -8 10 -10 10 -5 0 6 -5 17 -10 25
-5 8 -10 11 -10 5z"/>
<path d="M4834 2716 c-3 -8 -4 -23 -1 -33 3 -12 5 -8 6 10 1 19 5 26 13 21 7
-4 8 -3 4 4 -10 16 -15 15 -22 -2z"/>
<path d="M4788 2582 c-3 -11 1 -30 8 -43 7 -13 14 -33 14 -44 l1 -20 9 20 c15
35 12 92 -6 99 -21 8 -21 8 -26 -12z"/>
<path d="M2755 2350 c-13 -6 -15 -9 -5 -9 8 0 22 4 30 9 18 12 2 12 -25 0z"/>
<path d="M2808 2353 c7 -3 16 -2 19 1 4 3 -2 6 -13 5 -11 0 -14 -3 -6 -6z"/>
<path d="M2850 2350 c0 -5 -15 -10 -34 -10 -19 0 -37 -4 -40 -9 -5 -8 18 -6
72 5 22 4 32 24 12 24 -5 0 -10 -4 -10 -10z"/>
<path d="M2957 1845 c-4 -8 -3 -16 1 -19 4 -3 9 4 9 15 2 23 -3 25 -10 4z"/>
<path d="M2896 1819 c-16 -15 -17 -22 -7 -32 10 -9 11 -9 6 5 -7 19 27 34 47
22 9 -6 9 -3 -1 9 -17 21 -21 21 -45 -4z"/>
<path d="M2795 1750 c4 -6 11 -8 16 -5 14 9 11 15 -7 15 -8 0 -12 -5 -9 -10z"/>
<path d="M2740 1735 c-7 -8 -8 -15 -2 -15 5 0 15 7 22 15 7 8 8 15 2 15 -5 0
-15 -7 -22 -15z"/>
<path d="M2763 1715 c-7 -8 -13 -20 -13 -26 0 -8 4 -7 13 3 6 8 21 20 32 26
l20 11 -20 0 c-11 0 -26 -6 -32 -14z"/>
<path d="M2702 1679 c-13 -5 -29 -6 -34 -2 -7 3 -8 1 -4 -5 4 -7 18 -9 33 -6
20 6 24 4 18 -7 -6 -11 -5 -11 5 -2 19 18 8 32 -18 22z"/>
<path d="M2420 1635 c0 -8 2 -15 4 -15 2 0 6 7 10 15 3 8 1 15 -4 15 -6 0 -10
-7 -10 -15z"/>
<path d="M2669 1623 c-29 -35 -41 -53 -36 -53 2 0 17 16 31 35 28 36 31 49 5
18z"/>
<path d="M2436 1604 c-4 -9 -4 -19 -1 -22 2 -3 7 3 11 12 4 9 4 19 1 22 -2 3
-7 -3 -11 -12z"/>
<path d="M2589 1543 c-13 -16 -12 -17 4 -4 9 7 17 15 17 17 0 8 -8 3 -21 -13z"/>
<path d="M2470 1509 c0 -5 5 -7 10 -4 6 3 10 8 10 11 0 2 -4 4 -10 4 -5 0 -10
-5 -10 -11z"/>
<path d="M4833 2360 c0 -25 2 -35 4 -22 2 12 2 32 0 45 -2 12 -4 2 -4 -23z"/>
<path d="M3558 2033 c12 -2 30 -2 40 0 9 3 -1 5 -23 4 -22 0 -30 -2 -17 -4z"/>
<path d="M5760 6361 c5 -11 15 -23 21 -27 6 -3 3 5 -6 20 -20 30 -30 35 -15 7z"/>
<path d="M3809 6323 c-13 -16 -12 -17 4 -4 9 7 17 15 17 17 0 8 -8 3 -21 -13z"/>
<path d="M5820 6275 c17 -25 33 -45 36 -45 3 0 -9 20 -26 45 -17 25 -33 45
-36 45 -3 0 9 -20 26 -45z"/>
<path d="M5870 6200 c6 -11 13 -20 16 -20 2 0 0 9 -6 20 -6 11 -13 20 -16 20
-2 0 0 -9 6 -20z"/>
<path d="M5925 6110 c9 -16 18 -30 21 -30 2 0 -2 14 -11 30 -9 17 -18 30 -21
30 -2 0 2 -13 11 -30z"/>
<path d="M5961 6050 c14 -31 19 -36 19 -24 0 6 -7 19 -16 30 -14 18 -14 18 -3
-6z"/>
<path d="M6002 5960 c11 -28 23 -48 25 -46 5 5 -34 96 -41 96 -3 0 5 -23 16
-50z"/>
<path d="M6034 5890 c9 -32 39 -101 43 -97 2 3 -8 29 -22 58 -14 30 -23 47
-21 39z"/>
<path d="M1157 5778 c-59 -102 -107 -208 -94 -208 8 0 26 32 42 73 15 39 41
96 57 125 16 28 27 52 25 52 -3 0 -16 -19 -30 -42z"/>
<path d="M5061 5774 c0 -11 3 -14 6 -6 3 7 2 16 -1 19 -3 4 -6 -2 -5 -13z"/>
<path d="M965 5719 c-4 -6 -5 -12 -2 -15 2 -3 7 2 10 11 7 17 1 20 -8 4z"/>
<path d="M894 5618 c-104 -166 -324 -418 -469 -536 -36 -30 -36 -31 -5 -10 78
51 232 207 344 347 89 112 176 241 162 241 -3 0 -18 -19 -32 -42z"/>
<path d="M4121 5564 c0 -11 3 -14 6 -6 3 7 2 16 -1 19 -3 4 -6 -2 -5 -13z"/>
<path d="M1036 5545 c-9 -26 -7 -32 5 -12 6 10 9 21 6 23 -2 3 -7 -2 -11 -11z"/>
<path d="M5251 5484 c0 -11 3 -14 6 -6 3 7 2 16 -1 19 -3 4 -6 -2 -5 -13z"/>
<path d="M987 5398 c-9 -30 -17 -61 -16 -69 0 -8 9 13 19 46 11 33 18 64 17
69 -1 4 -10 -16 -20 -46z"/>
<path d="M3610 5419 c0 -5 5 -7 10 -4 6 3 10 8 10 11 0 2 -4 4 -10 4 -5 0 -10
-5 -10 -11z"/>
<path d="M3660 5391 c0 -6 4 -13 10 -16 6 -3 7 1 4 9 -7 18 -14 21 -14 7z"/>
<path d="M5222 5325 c0 -11 3 -29 8 -40 11 -25 11 1 0 35 -6 20 -8 21 -8 5z"/>
<path d="M3714 5321 c7 -11 46 -35 46 -28 0 3 -12 12 -26 22 -15 9 -23 12 -20
6z"/>
<path d="M961 5294 c0 -11 3 -14 6 -6 3 7 2 16 -1 19 -3 4 -6 -2 -5 -13z"/>
<path d="M4181 5294 c0 -11 3 -14 6 -6 3 7 2 16 -1 19 -3 4 -6 -2 -5 -13z"/>
<path d="M3810 5276 c0 -2 7 -7 16 -10 8 -3 12 -2 9 4 -6 10 -25 14 -25 6z"/>
<path d="M5306 5260 c7 -28 12 -35 18 -29 2 2 -2 15 -10 29 l-15 25 7 -25z"/>
<path d="M940 5195 c-7 -41 -11 -77 -8 -80 2 -2 10 30 17 71 7 42 11 78 8 80
-2 2 -10 -30 -17 -71z"/>
<path d="M5222 5230 c0 -14 2 -19 5 -12 2 6 2 18 0 25 -3 6 -5 1 -5 -13z"/>
<path d="M5241 5234 c0 -11 3 -14 6 -6 3 7 2 16 -1 19 -3 4 -6 -2 -5 -13z"/>
<path d="M5201 5214 c0 -11 3 -14 6 -6 3 7 2 16 -1 19 -3 4 -6 -2 -5 -13z"/>
<path d="M5331 5204 c0 -11 3 -14 6 -6 3 7 2 16 -1 19 -3 4 -6 -2 -5 -13z"/>
<path d="M4312 5185 c0 -16 2 -22 5 -12 2 9 2 23 0 30 -3 6 -5 -1 -5 -18z"/>
<path d="M3903 5185 c0 -8 4 -12 9 -9 5 3 6 10 3 15 -9 13 -12 11 -12 -6z"/>
<path d="M3963 5194 c4 -4 -3 -14 -15 -22 -18 -10 -18 -12 -3 -6 11 4 28 7 38
8 22 0 22 3 -5 17 -13 6 -19 8 -15 3z"/>
<path d="M5321 5153 c-1 -12 4 -25 9 -28 12 -7 12 2 0 30 -8 19 -9 19 -9 -2z"/>
<path d="M4296 5123 c-6 -14 -5 -15 5 -6 7 7 10 15 7 18 -3 3 -9 -2 -12 -12z"/>
<path d="M5340 5115 c-7 -14 -10 -28 -7 -32 4 -3 7 1 7 11 0 9 4 15 9 12 5 -3
11 1 15 9 9 25 -10 25 -24 0z"/>
<path d="M4098 5108 c5 -5 16 -8 23 -6 8 3 3 7 -10 11 -17 4 -21 3 -13 -5z"/>
<path d="M922 5070 c0 -19 2 -27 5 -17 2 9 2 25 0 35 -3 9 -5 1 -5 -18z"/>
<path d="M4086 5089 c8 -13 44 -31 44 -22 0 4 -11 13 -25 20 -14 6 -23 7 -19
2z"/>
<path d="M4281 5080 c0 -8 4 -24 9 -35 l9 -20 0 20 c0 11 -4 27 -9 35 -9 13
-10 13 -9 0z"/>
<path d="M5351 5054 c0 -11 3 -14 6 -6 3 7 2 16 -1 19 -3 4 -6 -2 -5 -13z"/>
<path d="M5889 5044 c-12 -14 -11 -16 5 -13 11 2 21 10 24 17 5 17 -13 15 -29
-4z"/>
<path d="M5828 5013 c7 -3 16 -2 19 1 4 3 -2 6 -13 5 -11 0 -14 -3 -6 -6z"/>
<path d="M4301 4994 c0 -11 3 -14 6 -6 3 7 2 16 -1 19 -3 4 -6 -2 -5 -13z"/>
<path d="M5200 4980 c0 -13 7 -20 20 -20 23 0 26 10 8 28 -18 18 -28 15 -28
-8z"/>
<path d="M4210 4980 c-8 -5 -12 -11 -10 -14 3 -2 14 2 24 10 22 15 10 19 -14
4z"/>
<path d="M4110 4910 c26 -20 40 -25 40 -14 0 11 -34 33 -50 33 -10 1 -6 -6 10
-19z"/>
<path d="M4192 4867 c10 -8 14 -18 10 -22 -4 -5 -1 -5 6 -1 7 4 20 2 28 -5 8
-6 17 -9 21 -5 3 3 1 6 -5 6 -6 0 -9 7 -5 16 4 12 2 15 -8 12 -8 -3 -25 -1
-39 3 -22 8 -23 8 -8 -4z"/>
<path d="M1011 4844 c0 -11 3 -14 6 -6 3 7 2 16 -1 19 -3 4 -6 -2 -5 -13z"/>
<path d="M863 4795 c0 -22 2 -30 4 -17 2 12 2 30 0 40 -3 9 -5 -1 -4 -23z"/>
<path d="M4796 4766 c2 -16 4 -32 4 -37 0 -5 9 -9 20 -9 25 0 26 15 1 32 -10
7 -21 20 -24 28 -2 8 -3 2 -1 -14z"/>
<path d="M4720 4730 c0 -5 12 -10 26 -10 14 0 23 4 19 10 -3 6 -15 10 -26 10
-10 0 -19 -4 -19 -10z"/>
<path d="M4290 4195 c0 -8 5 -15 10 -15 6 0 10 7 10 15 0 8 -4 15 -10 15 -5 0
-10 -7 -10 -15z"/>
<path d="M4292 4060 c0 -14 2 -19 5 -12 2 6 2 18 0 25 -3 6 -5 1 -5 -13z"/>
<path d="M1385 3550 c3 -5 8 -10 11 -10 2 0 4 5 4 10 0 6 -5 10 -11 10 -5 0
-7 -4 -4 -10z"/>
<path d="M1426 3480 c22 -44 113 -167 148 -199 34 -32 34 -20 0 16 -38 41
-114 140 -114 150 -1 4 -12 22 -26 38 l-26 30 18 -35z"/>
<path d="M1810 3150 c-9 -6 -10 -10 -3 -10 6 0 15 5 18 10 8 12 4 12 -15 0z"/>
<path d="M3820 1989 c261 -19 434 -44 529 -75 49 -17 74 -13 65 10 -3 9 -9 15
-12 14 -38 -4 -62 4 -62 22 0 11 -4 20 -9 20 -5 0 -7 -9 -4 -20 6 -23 -2 -24
-65 -10 -81 19 -377 50 -462 49 l-85 -2 105 -8z"/>
<path d="M4390 1960 c-12 -7 -10 -9 8 -7 12 0 22 5 22 9 0 11 -12 10 -30 -2z"/>
<path d="M4421 1874 c0 -11 3 -14 6 -6 3 7 2 16 -1 19 -3 4 -6 -2 -5 -13z"/>
<path d="M4336 1855 c4 -8 8 -15 10 -15 2 0 4 7 4 15 0 8 -4 15 -10 15 -5 0
-7 -7 -4 -15z"/>
<path d="M4405 1800 c-3 -5 -1 -10 4 -10 6 0 11 5 11 10 0 6 -2 10 -4 10 -3 0
-8 -4 -11 -10z"/>
<path d="M4430 1790 c0 -5 5 -10 10 -10 6 0 10 5 10 10 0 6 -4 10 -10 10 -5 0
-10 -4 -10 -10z"/>
<path d="M4657 1463 c-4 -3 -7 -11 -7 -17 0 -6 5 -5 12 2 6 6 9 14 7 17 -3 3
-9 2 -12 -2z"/>
<path d="M4453 1400 c0 -25 2 -35 4 -22 2 12 2 32 0 45 -2 12 -4 2 -4 -23z"/>
<path d="M4420 1295 c-10 -13 -9 -15 9 -15 12 0 21 6 21 15 0 8 -4 15 -9 15
-5 0 -14 -7 -21 -15z"/>
<path d="M3960 860 c0 -5 5 -10 10 -10 6 0 10 5 10 10 0 6 -4 10 -10 10 -5 0
-10 -4 -10 -10z"/>
<path d="M3985 840 c-3 -5 -1 -10 4 -10 6 0 11 5 11 10 0 6 -2 10 -4 10 -3 0
-8 -4 -11 -10z"/>
<path d="M2705 778 c-11 -74 -75 -310 -107 -398 -37 -102 -98 -243 -139 -323
-26 -50 -28 -58 -13 -55 16 3 57 84 137 273 76 177 169 545 139 545 -6 0 -13
-19 -17 -42z"/>
<path d="M3921 754 c0 -11 3 -14 6 -6 3 7 2 16 -1 19 -3 4 -6 -2 -5 -13z"/>
<path d="M3586 482 c-2 -4 -1 -14 4 -22 7 -11 9 -9 7 8 -1 24 -3 26 -11 14z"/>
<path d="M3413 280 c0 -25 2 -35 4 -22 2 12 2 32 0 45 -2 12 -4 2 -4 -23z"/>
<path d="M3351 94 c0 -11 3 -14 6 -6 3 7 2 16 -1 19 -3 4 -6 -2 -5 -13z"/>
</g>
</svg>
